<svg width="21" height="21" viewBox="0 0 21 21" fill="none" xmlns="http://www.w3.org/2000/svg">
<g id="person_24px">
<path id="icon/social/person_24px" fill-rule="evenodd" clip-rule="evenodd" d="M10.4319 0.821838C7.66948 0.821838 5.43203 3.05929 5.43203 5.82174C5.43203 8.58418 7.66948 10.8216 10.4319 10.8216C13.1944 10.8216 15.4318 8.58418 15.4318 5.82174C15.4318 3.05929 13.1944 0.821838 10.4319 0.821838ZM12.9316 5.82182C12.9316 4.44685 11.8067 3.32188 10.4317 3.32188C9.05671 3.32188 7.93173 4.44685 7.93173 5.82182C7.93173 7.1968 9.05671 8.32177 10.4317 8.32177C11.8067 8.32177 12.9316 7.1968 12.9316 5.82182ZM17.9317 18.3217C17.6817 17.4342 13.8067 15.8217 10.4318 15.8217C7.06937 15.8217 3.21945 17.4217 2.93196 18.3217H17.9317ZM0.431885 18.3218C0.431885 14.9969 7.09425 13.3219 10.4317 13.3219C13.7691 13.3219 20.4315 14.9969 20.4315 18.3218V20.8218H0.431885V18.3218Z" fill="black" fill-opacity="0.44"/>
</g>
</svg>
